<svg xmlns="http://www.w3.org/2000/svg" viewBox="0 0 598.42 189.65"><defs><style>.cls-1{fill:#1b459c}.cls-2{fill:#1b479a}</style></defs><g id="Layer_1" data-name="Layer 1"><path class="cls-1" d="M176 125.31c-2.23 18.2-4.13 36-4.28 36h-.14c-.15 0-12.82-21.63-18.19-30.24l-17.83-28.65h-22.7l-2.65 21.68v.17l-9.63 78.45h24.06l2.74-22.21c2.34-19 3.85-33.22 4.3-36.61 3.91 6.43 13.57 21.63 19.16 30.88l17 27.94h22.62l12.32-100.3h-23.97z" transform="translate(-100.61 -98.13)"/><path class="cls-1" d="M112.28 104.56h24.06l12.31-100.3h-24.06l-12.31 100.3z"/><path class="cls-1" d="M335.62 102.39l-26.13 55.31c-5.23 11.17-7.84 18.34-8 18.34h-.14c-.15 0-1-7.17-3.49-18.34l-12.53-55.31H259l26.21 100.3h25.92L362 102.39z" transform="translate(-100.61 -98.13)"/><path class="cls-1" d="M380.49 82.11l.47-3.81.06-.07 9.08-73.97H366.02l-12.25 100.3h15.84v.07l55.57-.07 2.77-22.5-47.46.05zM268.38 26.36h72.9l2.7-22.1h-72.89l-2.71 22.1zM287.79 64.3h38.23l2.59-21.07h-38.26l1.55-10.21h-24.04l-9.08 71.54h73.75l2.77-22.5h-49.69l2.18-17.76z"/></g><g id="Layer_2" data-name="Layer 2"><path class="cls-1" transform="rotate(-75 459.586 168.59)" d="M520.37 151.07h111.96v3H520.37z"/><path class="cls-2" d="M100.71 273.64H109c-.3 5.43 3.7 7.22 9.25 7.22 4.23 0 8.17-1.61 8.17-5.55 0-3-2-4.3-9.25-6.93-7.58-2.74-12.05-5.37-12.05-12.05 0-8.18 6.2-12.95 15.57-12.95 8.72 0 16.29 3.7 15.88 13.31h-8.17c.18-4.18-2.69-6.51-8-6.51-3.16 0-7.1 1.2-7.16 5-.06 2.86 1.91 3.7 8.66 6 8.47 2.93 13 6.15 13 12.95 0 9-7.17 13.61-16.89 13.61s-17.84-4.26-17.3-14.1zM146.78 244.16h16.41c8.17 0 13.6 4.59 13.6 12.59 0 9.13-6.5 14.62-16 14.62h-10.43l-3 15.45h-8.83zm4.95 20.23h8.59c4 0 7.64-2.15 7.64-7.23 0-3.46-2-5.55-5.91-5.55h-7.87zM185.2 244.16h29.72l-1.37 7.22h-21.19l-1.85 9.6h18.62l-1.37 7h-18.62l-2.27 11.63h21.67l-1.38 7.16H177zM214.5 269.58c0-13 8.35-26.26 22.8-26.26 8.65 0 15.15 4.36 15.69 14.38h-8.41c-.42-4.83-3.05-7.16-7.94-7.16-9.31 0-13.43 10.09-13.43 18.92 0 5.91 2.39 11.22 9.61 11.22 5 0 8.47-2.87 10-7.58h8.41c-1.19 4.47-3.34 8.35-6.68 10.92-3.52 2.68-7.16 3.7-12.36 3.7-11.37 0-17.69-7.64-17.69-18.14zM262.3 244.16h8.53l-8.24 42.66h-8.53zM294.82 277.69h-14.74l-4.3 9.13h-8.65L289 244.16h8.83l7 42.66H296zm-11.64-6.56H294l-1.49-12c-.3-2.44-.54-6.8-.54-6.8h-.12S290 256.75 289 259zM317.55 244.16h8.53l-6.86 35.5h19.1l-1.38 7.16h-27.63zM341.77 244.16H375l-1.37 7.22h-12.4l-6.87 35.44h-8.53l6.86-35.44H340.4zM386.35 270.11l-8.36-26h8.77l3.65 12.23c.77 2.62 1.55 6.38 1.55 6.38h.12s2-3.46 3.88-6.14l8.65-12.47h9.25l-19 26.19-3.16 16.47h-8.54zM426.74 244.16h8.83l2.81 24.16c.36 3.35.65 7.46.65 7.46h.12s1.56-3.93 3-6.92l11.69-24.7h8.72l-21.61 42.66h-7.75zM466.9 244.16h29.72l-1.38 7.22h-21.18l-1.85 9.6h18.62l-1.37 7h-18.62l-2.27 11.63h21.66l-1.37 7.16h-30.2zM503.47 244.16H512l-3.22 16.76h15.69l3.22-16.76h8.54L528 286.82h-8.53l3.64-18.82h-15.7l-3.64 18.85h-8.53zM543.93 244.16h8.53l-8.23 42.66h-8.53zM553.77 269.58c0-13 8.36-26.26 22.8-26.26 8.65 0 15.16 4.36 15.7 14.38h-8.42c-.42-4.83-3-7.16-7.94-7.16-9.31 0-13.42 10.09-13.42 18.92 0 5.91 2.38 11.22 9.6 11.22 5 0 8.48-2.87 10-7.58h8.42c-1.2 4.47-3.35 8.35-6.69 10.92-3.52 2.68-7.16 3.7-12.35 3.7-11.37 0-17.7-7.64-17.7-18.14zM601.51 244.16h8.54l-6.87 35.5h19.1l-1.37 7.16h-27.63zM634.63 244.16h29.72l-1.35 7.22h-21.21l-1.85 9.6h18.62l-1.37 7h-18.62l-2.27 11.63H658l-1.37 7.16h-30.2zM663.15 273.64h8.29c-.3 5.43 3.7 7.22 9.25 7.22 4.24 0 8.18-1.61 8.18-5.55 0-3-2-4.3-9.25-6.93-7.58-2.74-12.06-5.37-12.06-12.05 0-8.18 6.21-12.95 15.58-12.95 8.71 0 16.29 3.7 15.87 13.31h-8.17c.18-4.18-2.69-6.51-8-6.51-3.16 0-7.1 1.2-7.16 5-.06 2.86 1.91 3.7 8.65 6 8.48 2.93 13 6.15 13 12.95 0 9-7.16 13.61-16.89 13.61s-17.83-4.26-17.29-14.1z" transform="translate(-100.61 -98.13)"/></g></svg>